<svg xmlns="http://www.w3.org/2000/svg" width="14" height="14" viewBox="0 0 14 14" fill="none">
  <path d="M9.7908 13.7996H4.00878C1.49725 13.7996 0 12.3023 0 9.79078V4.01566C0 1.49723 1.49725 -2.09808e-05 4.00878 -2.09808e-05H9.7839C12.2954 -2.09808e-05 13.7927 1.49723 13.7927 4.00876V9.79078C13.7996 12.3023 12.3023 13.7996 9.7908 13.7996ZM10.2669 7.22406C10.2669 6.95497 10.053 6.74107 9.7839 6.74107C9.51481 6.74107 9.30092 6.95497 9.30092 7.22406V7.34826L7.42417 5.47151C7.32068 5.36802 7.18268 5.31972 7.03779 5.33352C6.89289 5.34732 6.76179 5.42321 6.6859 5.54741L5.98212 6.59618L4.33997 4.95403C4.24337 4.85743 4.12607 4.81603 4.00188 4.81603C3.87768 4.81603 3.75349 4.86433 3.66379 4.95403C3.47749 5.14032 3.47749 5.44391 3.66379 5.63711L5.71993 7.69325C5.82342 7.79674 5.96142 7.84504 6.10631 7.83124C6.25121 7.81744 6.38231 7.74154 6.4582 7.61735L7.16198 6.56858L8.61784 8.02444H8.49364C8.22455 8.02444 8.01066 8.23833 8.01066 8.50742C8.01066 8.77651 8.22455 8.99041 8.49364 8.99041H9.777C9.8391 8.99041 9.9012 8.97661 9.9633 8.95591C10.0806 8.90761 10.1772 8.81101 10.2255 8.69372C10.2531 8.63162 10.26 8.56952 10.26 8.50742V7.22406H10.2669Z" fill="#FF3767" fill-opacity="0.93"/>
</svg>