<svg xmlns="http://www.w3.org/2000/svg" width="15" height="16" viewBox="0 0 15 16" fill="none">
  <path d="M10.8154 0.798584H4.76943C2.14325 0.798584 0.577637 2.3642 0.577637 4.99038V11.0292C0.577637 13.6626 2.14325 15.2282 4.76943 15.2282H10.8082C13.4344 15.2282 15 13.6626 15 11.0364V4.99038C15.0072 2.3642 13.4416 0.798584 10.8154 0.798584ZM11.3133 7.67429C11.3133 7.95566 11.0896 8.17932 10.8082 8.17932C10.5268 8.17932 10.3032 7.95566 10.3032 7.67429V7.54442L8.34076 9.50685C8.23254 9.61507 8.08824 9.66557 7.93673 9.65114C7.78522 9.63671 7.64814 9.55735 7.56878 9.42748L6.83287 8.33083L5.11575 10.048C5.01474 10.149 4.89209 10.1923 4.76222 10.1923C4.63235 10.1923 4.50249 10.1417 4.40869 10.048C4.2139 9.85316 4.2139 9.53571 4.40869 9.33369L6.55871 7.18368C6.66693 7.07546 6.81122 7.02496 6.96273 7.03939C7.11424 7.05381 7.25133 7.13318 7.33069 7.26304L8.0666 8.35969L9.58892 6.83737H9.45905C9.17768 6.83737 8.95402 6.61371 8.95402 6.33234C8.95402 6.05096 9.17768 5.8273 9.45905 5.8273H10.801C10.8659 5.8273 10.9309 5.84173 10.9958 5.86337C11.1185 5.91388 11.2195 6.01488 11.27 6.13754C11.2988 6.20247 11.306 6.2674 11.306 6.33234V7.67429H11.3133Z" fill="#00FFB6" fill-opacity="0.93"/>
</svg>